HIERARCHY
ROOT Hips
{
	OFFSET 0.00000 0.00000 0.00000
	CHANNELS 6 Xposition Yposition Zposition Zrotation Yrotation Xrotation 
	JOINT LHipJoint
	{
		OFFSET 0 0 0
		CHANNELS 3 Zrotation Yrotation Xrotation
		JOINT LeftUpLeg
		{
			OFFSET 1.37590 -1.78394 0.89329
			CHANNELS 3 Zrotation Yrotation Xrotation
			JOINT LeftLeg
			{
				OFFSET 2.47928 -6.81178 0.00000
				CHANNELS 3 Zrotation Yrotation Xrotation
				JOINT LeftFoot
				{
					OFFSET 2.63345 -7.23535 0.00000
					CHANNELS 3 Zrotation Yrotation Xrotation
					JOINT LeftToeBase
					{
						OFFSET 0.23938 -0.65768 2.27012
						CHANNELS 3 Zrotation Yrotation Xrotation
						End Site
						{
							OFFSET 0.00000 -0.00000 1.18363
						}
					}
				}
			}
		}
	}
	JOINT RHipJoint
	{
		OFFSET 0 0 0
		CHANNELS 3 Zrotation Yrotation Xrotation
		JOINT RightUpLeg
		{
			OFFSET -1.33617 -1.78394 0.89329
			CHANNELS 3 Zrotation Yrotation Xrotation
			JOINT RightLeg
			{
				OFFSET -2.56922 -7.05888 0.00000
				CHANNELS 3 Zrotation Yrotation Xrotation
				JOINT RightFoot
				{
					OFFSET -2.56568 -7.04915 0.00000
					CHANNELS 3 Zrotation Yrotation Xrotation
					JOINT RightToeBase
					{
						OFFSET -0.27533 -0.75646 2.18105
						CHANNELS 3 Zrotation Yrotation Xrotation
						End Site
						{
							OFFSET -0.00000 -0.00000 1.15233
						}
					}
				}
			}
		}
	}
	JOINT LowerBack
	{
		OFFSET 0 0 0
		CHANNELS 3 Zrotation Yrotation Xrotation
		JOINT Spine
		{
			OFFSET 0.06190 2.15152 -0.00935
			CHANNELS 3 Zrotation Yrotation Xrotation
			JOINT Spine1
			{
				OFFSET 0.06334 2.15332 0.00872
				CHANNELS 3 Zrotation Yrotation Xrotation
				JOINT Neck
				{
					OFFSET 0 0 0
					CHANNELS 3 Zrotation Yrotation Xrotation
					JOINT Neck1
					{
						OFFSET -0.04202 1.66908 0.23524
						CHANNELS 3 Zrotation Yrotation Xrotation
						JOINT Head
						{
							OFFSET 0.07510 1.69357 -0.24440
							CHANNELS 3 Zrotation Yrotation Xrotation
							End Site
							{
								OFFSET 0.02556 1.71719 -0.11000
							}
						}
					}
				}
				JOINT LeftShoulder
				{
					OFFSET 0 0 0
					CHANNELS 3 Zrotation Yrotation Xrotation
					JOINT LeftArm
					{
						OFFSET 3.67168 1.26306 -0.41342
						CHANNELS 3 Zrotation Yrotation Xrotation
						JOINT LeftForeArm
						{
							OFFSET 4.68510 -0.00000 -0.00000
							CHANNELS 3 Zrotation Yrotation Xrotation
							JOINT LeftHand
							{
								OFFSET 3.39626 -0.00000 -0.00000
								CHANNELS 3 Zrotation Yrotation Xrotation
								JOINT LeftFingerBase
								{
									OFFSET 0 0 0
									CHANNELS 3 Zrotation Yrotation Xrotation
									JOINT LeftHandIndex1
									{
										OFFSET 0.48608 -0.00000 -0.00000
										CHANNELS 3 Zrotation Yrotation Xrotation
										End Site
										{
											OFFSET 0.39189 -0.00000 -0.00000
										}
									}
								}
								JOINT LThumb
								{
									OFFSET 0 0 0
									CHANNELS 3 Zrotation Yrotation Xrotation
									End Site
									{
										OFFSET 0.39787 -0.00000 0.39787
									}
								}
							}
						}
					}
				}
				JOINT RightShoulder
				{
					OFFSET 0 0 0
					CHANNELS 3 Zrotation Yrotation Xrotation
					JOINT RightArm
					{
						OFFSET -3.04136 1.42992 -0.76390
						CHANNELS 3 Zrotation Yrotation Xrotation
						JOINT RightForeArm
						{
							OFFSET -5.55576 -0.00000 -0.00000
							CHANNELS 3 Zrotation Yrotation Xrotation
							JOINT RightHand
							{
								OFFSET -3.32774 -0.00000 -0.00000
								CHANNELS 3 Zrotation Yrotation Xrotation
								JOINT RightFingerBase
								{
									OFFSET 0 0 0
									CHANNELS 3 Zrotation Yrotation Xrotation
									JOINT RightHandIndex1
									{
										OFFSET -0.50763 -0.00000 -0.00000
										CHANNELS 3 Zrotation Yrotation Xrotation
										End Site
										{
											OFFSET -0.40926 -0.00000 -0.00000
										}
									}
								}
								JOINT RThumb
								{
									OFFSET 0 0 0
									CHANNELS 3 Zrotation Yrotation Xrotation
									End Site
									{
										OFFSET -0.41551 -0.00000 0.41551
									}
								}
							}
						}
					}
				}
			}
		}
	}
}
MOTION
Frames: 11
Frame Time: .0083333
6.9319 17.5896 5.8644 -328.2330 -86.9234 335.0920 0.0000 0.0000 0.0000 -21.5501 -4.3710 2.6331 1.4263 7.5520 21.3614 0.4231 -7.6775 -11.9871 0.5950 -4.9381 -13.7322 0.0000 0.0000 0.0000 12.4443 7.1539 -34.0245 -1.1966 -6.9408 19.5401 1.0874 -18.0967 -7.5796 -0.4879 -4.4788 12.4276 0.3388 -1.4889 -0.0891 3.0254 -1.9993 -0.8472 2.9237 -1.0065 -0.7216 -8.1518 -4.4054 -14.0799 7.6423 -4.9459 -4.7520 3.7132 -2.3224 1.3742 -0.0000 0.0000 0.0000 -86.9606 -2.4101 -6.9034 8.2089 -13.8908 -1.0017 -0.0000 -0.0000 47.3375 11.5810 24.4483 4.8478 -7.1250 0.0000 -0.0000 -18.6697 53.8916 -4.1937 -0.0000 0.0000 0.0000 84.7669 -5.8880 -47.9785 -7.4280 12.6214 -0.8226 0.0000 0.0000 18.2109 17.6553 -26.2009 -7.9993 7.1250 -0.0000 -0.0000 46.1526 -50.3564 -7.5028
6.7830 17.5912 5.8368 -330.3690 -86.9845 337.2040 0.0000 0.0000 0.0000 -21.2629 -4.3846 2.5484 1.5386 7.8305 22.2003 0.3794 -7.7164 -11.4541 0.6544 -5.1741 -14.4059 0.0000 0.0000 0.0000 12.7455 7.1771 -33.7421 -1.1902 -6.9230 19.4873 1.0811 -18.0401 -7.3604 -0.5256 -4.6460 12.9015 0.4633 -1.4539 -0.1384 3.0698 -1.9529 -0.9122 2.8992 -0.9842 -0.7655 -8.2287 -4.4223 -13.8831 7.6153 -4.9659 -4.9636 3.7196 -2.3363 1.2713 0.0000 0.0000 0.0000 -87.0602 -2.9923 -4.5000 8.3767 -14.1616 -1.0424 -0.0000 -0.0000 46.1350 11.4188 24.1961 4.7323 -7.1250 0.0000 -0.0000 -18.6933 53.6225 -4.0743 0.0000 0.0000 0.0000 84.9081 -4.0254 -45.2328 -7.4951 12.7311 -0.8373 0.0000 0.0000 16.2144 18.1737 -26.2257 -8.2542 7.1250 -0.0000 -0.0000 46.5882 -50.2884 -7.5156
6.6335 17.5941 5.8087 -332.7080 -87.0649 339.5070 0.0000 0.0000 0.0000 -20.9567 -4.4002 2.4262 1.6627 8.1251 23.0946 0.3337 -7.7267 -10.8683 0.7130 -5.3964 -15.0426 0.0000 0.0000 0.0000 13.0890 7.1804 -33.4408 -1.1908 -6.9246 19.4923 1.0698 -17.9460 -7.1508 -0.5658 -4.8177 13.3894 0.6023 -1.4133 -0.1874 3.1174 -1.8993 -0.9793 2.8699 -0.9585 -0.8122 -8.3059 -4.4376 -13.6771 7.5886 -4.9851 -5.1710 3.7267 -2.3495 1.1685 0.0000 0.0000 0.0000 -87.1509 -3.5578 -1.9956 8.5730 -14.4773 -1.0909 -0.0000 -0.0000 44.8628 11.2502 23.9201 4.6111 -7.1250 0.0000 -0.0000 -18.7120 53.3299 -3.9424 0.0000 0.0000 0.0000 85.0334 -2.1281 -42.2035 -7.5922 12.8897 -0.8589 0.0000 0.0000 13.9960 18.7068 -26.2594 -8.5204 7.1250 -0.0000 -0.0000 47.0402 -50.2244 -7.5365
6.4837 17.5984 5.7802 -335.3330 -87.1624 342.0860 0.0000 0.0000 0.0000 -20.6311 -4.4186 2.2621 1.7996 8.4356 24.0450 0.2869 -7.7016 -10.2316 0.7701 -5.6035 -15.6382 0.0000 0.0000 0.0000 13.4727 7.1639 -33.1211 -1.1973 -6.9429 19.5463 1.0539 -17.8165 -6.9506 -0.6074 -4.9885 13.8758 0.7576 -1.3677 -0.2386 3.1677 -1.8392 -1.0478 2.8342 -0.9299 -0.8597 -8.3816 -4.4509 -13.4614 7.5616 -5.0029 -5.3756 3.7339 -2.3620 1.0649 -0.0000 -0.0000 0.0000 -87.2286 -4.1068 0.5921 8.8001 -14.8412 -1.1484 -0.0000 -0.0000 43.5314 11.0768 23.6241 4.4858 -7.1250 0.0000 -0.0000 -18.7263 53.0180 -3.8000 -0.0000 -0.0000 0.0000 85.1438 -0.2006 -38.8968 -7.7253 13.1066 -0.8888 0.0000 0.0000 11.5588 19.2497 -26.3015 -8.7958 7.1250 -0.0000 -0.0000 47.5044 -50.1649 -7.5656
6.3333 17.6041 5.7515 -338.3010 -87.2763 344.9980 0.0000 0.0000 0.0000 -20.2872 -4.4363 2.0578 1.9493 8.7596 25.0462 0.2400 -7.6400 -9.5479 0.8247 -5.7940 -16.1878 0.0000 0.0000 0.0000 13.8938 7.1299 -32.7793 -1.2088 -6.9749 19.6412 1.0338 -17.6522 -6.7631 -0.6503 -5.1584 14.3608 0.9291 -1.3164 -0.2903 3.2203 -1.7717 -1.1179 2.7918 -0.8979 -0.9090 -8.4566 -4.4627 -13.2371 7.5359 -5.0199 -5.5763 3.7418 -2.3738 0.9614 0.0000 -0.0000 0.0000 -87.2916 -4.6414 3.2339 9.0590 -15.2544 -1.2156 -0.0000 -0.0000 42.1600 10.8975 23.3176 4.3579 -7.1250 0.0000 -0.0000 -18.7427 52.6956 -3.6528 0.0000 -0.0000 0.0000 85.2381 1.7545 -35.3674 -7.8995 13.3898 -0.9287 0.0000 0.0000 8.9514 19.7981 -26.3439 -9.0761 7.1250 -0.0000 -0.0000 47.9708 -50.1046 -7.5932
6.1827 17.6111 5.7226 -341.6970 -87.4018 348.3300 0.0000 0.0000 0.0000 -19.9266 -4.4545 1.8096 2.1123 9.0962 26.0967 0.1939 -7.5423 -8.8214 0.8760 -5.9670 -16.6888 0.0000 0.0000 0.0000 14.3464 7.0799 -32.4169 -1.2245 -7.0185 19.7702 1.0101 -17.4566 -6.5938 -0.6769 -5.2606 14.6534 1.1144 -1.2601 -0.3403 3.2756 -1.6975 -1.1914 2.7445 -0.8630 -0.9632 -8.5316 -4.4732 -13.0054 7.5113 -5.0362 -5.7719 3.7506 -2.3850 0.8585 0.0000 0.0000 0.0000 -87.3387 -5.1606 5.9003 9.3489 -15.7148 -1.2930 -0.0000 -0.0000 40.7830 10.7352 22.9828 4.2336 -7.1250 0.0000 -0.0000 -18.7300 52.3494 -3.4881 0.0000 0.0000 0.0000 85.3162 3.7331 -31.6622 -8.1212 13.7491 -0.9807 0.0000 0.0000 6.2220 20.3449 -26.3929 -9.3599 7.1250 -0.0000 -0.0000 48.4386 -50.0492 -7.6273
6.0319 17.6195 5.6934 -345.6170 -87.5357 352.1780 0.0000 0.0000 0.0000 -19.5503 -4.4725 1.5165 2.2890 9.4437 27.1935 0.1496 -7.4079 -8.0571 0.9225 -6.1191 -17.1305 0.0000 0.0000 0.0000 14.8268 7.0159 -32.0325 -1.2435 -7.0706 19.9246 0.9833 -17.2328 -6.4460 -0.7250 -5.4406 15.1696 1.3142 -1.1985 -0.3924 3.3322 -1.6166 -1.2657 2.6905 -0.8250 -1.0173 -8.6039 -4.4827 -12.7695 7.4868 -5.0525 -5.9646 3.7592 -2.3961 0.7559 -0.0000 0.0000 0.0000 -87.3665 -5.6710 8.5729 9.6720 -16.2249 -1.3819 -0.0000 -0.0000 39.4086 10.5815 22.6373 4.1127 -7.1250 0.0000 -0.0000 -18.7062 51.9949 -3.3175 -0.0000 0.0000 0.0000 85.3769 5.7365 -27.8333 -8.3951 14.1913 -1.0469 0.0000 0.0000 3.4092 20.8824 -26.4468 -9.6431 7.1250 -0.0000 -0.0000 48.9009 -49.9987 -7.6666
5.8810 17.6291 5.6642 -350.2070 -87.6720 356.6900 0.0000 0.0000 0.0000 -19.1585 -4.4915 1.1772 2.4796 9.8007 28.3338 0.1079 -7.2383 -7.2603 0.9632 -6.2488 -17.5080 0.0000 0.0000 0.0000 15.3310 6.9401 -31.6243 -1.2645 -7.1279 20.0948 0.9542 -16.9863 -6.3214 -0.7742 -5.6182 15.6805 1.5283 -1.1325 -0.4467 3.3909 -1.5301 -1.3409 2.6306 -0.7848 -1.0712 -8.6768 -4.4910 -12.5279 7.4652 -5.0682 -6.1564 3.7694 -2.4067 0.6529 -0.0000 0.0000 0.0000 -87.3757 -6.1761 11.2186 10.0269 -16.7817 -1.4827 -0.0000 -0.0000 38.0620 10.4471 22.2785 3.9986 -7.1250 0.0000 -0.0000 -18.6599 51.6314 -3.1388 -0.0000 0.0000 0.0000 85.4180 7.7631 -23.9451 -8.7250 14.7210 -1.1292 0.0000 0.0000 0.5686 21.4028 -26.5043 -9.9215 7.1250 -0.0000 -0.0000 49.3508 -49.9535 -7.7103
5.7301 17.6400 5.6349 -355.6030 -87.8060 362.0010 0.0000 0.0000 0.0000 -18.7519 -4.5101 0.7922 2.6840 10.1650 29.5126 0.0698 -7.0341 -6.4394 0.9982 -6.3581 -17.8271 0.0000 0.0000 0.0000 15.8556 6.8562 -31.1907 -1.2867 -7.1877 20.2727 0.9234 -16.7208 -6.2171 -0.8226 -5.7869 16.1675 1.7573 -1.0607 -0.4991 3.4499 -1.4360 -1.4174 2.5627 -0.7411 -1.1278 -8.7465 -4.4997 -12.2878 7.4455 -5.0852 -6.3433 3.7799 -2.4177 0.5521 -0.0000 0.0000 0.0000 -87.3623 -6.6776 13.8241 10.4141 -17.3847 -1.5965 -0.0000 -0.0000 36.7518 10.3350 21.9122 3.8932 -7.1250 0.0000 -0.0000 -18.5915 51.2646 -2.9555 -0.0000 0.0000 0.0000 85.4400 9.8091 -20.0529 -9.1154 15.3442 -1.2305 0.0000 -0.0000 -2.2592 21.8982 -26.5616 -10.1896 7.1250 -0.0000 -0.0000 49.7788 -49.9120 -7.7538
5.5794 17.6521 5.6057 -361.9620 -87.9292 368.2720 0.0000 0.0000 0.0000 -18.3307 -4.5295 0.3609 2.9019 10.5345 30.7255 0.0360 -6.7975 -5.6007 1.0265 -6.4451 -18.0814 0.0000 0.0000 0.0000 16.3973 6.7667 -30.7306 -1.3089 -7.2471 20.4495 0.8914 -16.4397 -6.1363 -0.8707 -5.9494 16.6377 2.0020 -0.9842 -0.5511 3.5094 -1.3358 -1.4956 2.4866 -0.6950 -1.1863 -8.8142 -4.5083 -12.0452 7.4284 -5.1031 -6.5286 3.7912 -2.4289 0.4515 0.0000 0.0000 0.0000 -87.3273 -7.1783 16.3663 10.8322 -18.0307 -1.7236 -0.0000 -0.0000 35.4934 10.2464 21.5380 3.7967 -7.1250 0.0000 -0.0000 -18.5000 50.8941 -2.7678 0.0000 0.0000 0.0000 85.4398 11.8744 -16.2165 -9.5677 16.0605 -1.3529 0.0000 -0.0000 -5.0252 22.3579 -26.6225 -10.4431 7.1250 -0.0000 -0.0000 50.1807 -49.8790 -7.8034
5.4288 17.6655 5.5765 -369.3760 -88.0326 375.5930 0.0000 0.0000 0.0000 -17.8958 -4.5496 -0.1154 3.1327 10.9068 31.9662 0.0071 -6.5309 -4.7542 1.0486 -6.5117 -18.2765 0.0000 0.0000 0.0000 16.9522 6.6759 -30.2412 -1.3300 -7.3031 20.6166 0.8588 -16.1470 -6.0807 -0.9195 -6.1094 17.1021 2.2618 -0.9028 -0.6030 3.5690 -1.2293 -1.5746 2.4021 -0.6462 -1.2456 -8.8794 -4.5169 -11.8015 7.4146 -5.1219 -6.7140 3.8035 -2.4405 0.3511 -0.0000 0.0000 0.0000 -87.2695 -7.6798 18.8320 11.2819 -18.7190 -1.8654 -0.0000 -0.0000 34.2912 10.1772 21.1678 3.7090 -7.1250 0.0000 -0.0000 -18.3953 50.5304 -2.5830 -0.0000 0.0000 0.0000 85.4162 13.9597 -12.4906 -10.0823 16.8683 -1.4988 0.0000 -0.0000 -7.6901 22.7699 -26.6863 -10.6755 7.1250 -0.0000 -0.0000 50.5472 -49.8558 -7.8592
